<svg width="402" height="316" viewBox="0 0 402 316" fill="none" xmlns="http://www.w3.org/2000/svg">
<path d="M215.041 230.349C177.218 259.873 123.006 255.465 90.4759 220.219C57.9486 184.971 58.0196 130.714 90.6398 95.5525C123.26 60.3886 177.489 56.1245 215.232 85.7473C229.733 69.3171 247.793 54.1422 268.893 45.0748C206.71 -15.5322 107.163 -14.767 45.9269 46.7903C-15.309 108.348 -15.309 207.653 45.9269 269.21C107.163 330.768 206.71 331.533 268.891 270.926C247.675 261.932 229.566 246.779 215.041 230.349Z" fill="white"/>
<path fill-rule="evenodd" clip-rule="evenodd" d="M308.253 64.4648C244.552 64.4648 204.516 143.917 204.516 157.978C204.516 172.799 244.552 251.492 308.253 251.492C360.028 251.492 402 209.624 402 157.978C402 106.333 360.028 64.4648 308.253 64.4648ZM314.472 199.1C306.317 199.104 298.345 196.696 291.563 192.181C284.78 187.665 279.493 181.244 276.37 173.73C273.246 166.217 272.427 157.948 274.015 149.969C275.603 141.991 279.528 134.662 285.292 128.909C291.056 123.156 298.402 119.237 306.399 117.649C314.397 116.06 322.686 116.873 330.221 119.985C337.755 123.097 344.194 128.367 348.725 135.13C353.256 141.893 355.674 149.844 355.674 157.978C355.674 180.68 337.232 199.087 314.472 199.1Z" fill="#19D4E5"/>
</svg>
